<svg width="50" height="50" viewBox="0 0 50 50" fill="none" xmlns="http://www.w3.org/2000/svg">
<path d="M49.304 30.6979C49.2369 30.6503 49.1624 30.614 49.0837 30.5904C49.0077 30.5445 48.9279 30.5055 48.845 30.4739L46.8318 29.9331C46.8941 29.6572 46.9668 29.3851 47.0159 29.1047C47.0339 29.0036 47.0319 28.9 47.0098 28.7998C46.9877 28.6996 46.9461 28.6047 46.8872 28.5206C46.8284 28.4365 46.7536 28.3649 46.667 28.3098C46.5805 28.2547 46.4839 28.2172 46.3829 28.1996C46.1792 28.1655 45.9703 28.2127 45.8011 28.3312C45.6319 28.4497 45.516 28.6299 45.4782 28.833C45.4361 29.0675 45.374 29.2958 45.3227 29.5277L45.225 29.5016C45.0936 29.4186 44.9402 29.3774 44.785 29.3834L43.7977 29.1182C44.0578 27.9669 44.194 26.791 44.2041 25.6107C44.2029 23.0081 43.5814 20.4432 42.3912 18.129C42.3896 18.126 42.3884 18.1229 42.3867 18.1199C39.654 12.7873 34.1149 9.12226 27.7256 9.12226C18.6397 9.12226 11.2471 16.5196 11.2471 25.6107C11.2442 28.745 12.1362 31.8148 13.818 34.4589C15.4998 37.1031 17.9015 39.2115 20.7404 40.536L19.973 43.9386C19.9274 44.1398 19.922 44.3481 19.9572 44.5514C19.9925 44.7548 20.0676 44.9491 20.1783 45.1232C20.289 45.2974 20.433 45.4478 20.6022 45.566C20.7713 45.6841 20.9621 45.7675 21.1636 45.8114L36.6828 49.1819C36.6852 49.1825 36.687 49.1842 36.6894 49.1848C36.6941 49.1859 36.6992 49.1854 36.7035 49.1864L40.2876 49.9648C40.3958 49.9887 40.5063 50.0005 40.6171 50C40.8498 50.0005 41.0797 49.9488 41.2899 49.8488L45.9045 47.6554C46.1178 47.5529 46.3052 47.4036 46.4528 47.2186C46.6005 47.0336 46.7045 46.8176 46.7572 46.5868L49.9617 32.3289C50.0313 32.0224 50.0056 31.7019 49.888 31.4104C49.7705 31.1189 49.5667 30.8703 49.304 30.6979ZM44.9036 31.0339L45.7026 31.2489L45.704 31.2496H45.7063L47.0628 31.6141L44.1379 33.6556C43.9619 33.4924 43.7501 33.373 43.5195 33.307L42.2053 32.9543L44.9036 31.0339ZM42.6881 30.4388H42.6889L42.9472 30.5083L40.2486 32.4282L30.0422 29.6864L32.7025 27.7556L32.827 27.7891L32.7526 28.0546C32.704 28.2518 32.7341 28.4601 32.8364 28.6355C32.9387 28.8108 33.1052 28.9395 33.3006 28.9943C33.496 29.049 33.705 29.0255 33.8835 28.9287C34.0619 28.832 34.1957 28.6696 34.2565 28.4759L34.3356 28.1944L39.5623 29.5988L39.4661 29.9409C39.4384 30.0397 39.4304 30.143 39.4426 30.2449C39.4549 30.3468 39.4871 30.4453 39.5374 30.5348C39.5877 30.6242 39.6551 30.7029 39.7358 30.7662C39.8165 30.8296 39.9089 30.8764 40.0077 30.904C40.0762 30.9234 40.147 30.9333 40.2182 30.9333C40.3886 30.9332 40.5543 30.8774 40.6901 30.7743C40.8258 30.6713 40.9242 30.5266 40.9702 30.3624L41.0707 30.004L42.6871 30.4383L42.6881 30.4388ZM28.0995 29.1645L26.002 28.601L28.623 26.6593L30.7609 27.2338L28.0995 29.1645ZM34.7581 26.6899L34.8069 26.514L35.3376 26.6632C35.3342 26.6758 35.3279 26.6877 35.3241 26.7003C35.3133 26.7407 35.2814 26.7847 35.2655 26.8262L34.7581 26.6899ZM36.7863 27.2346C36.8008 27.1893 36.8229 27.1445 36.8351 27.099C36.8363 27.0946 36.8388 27.0898 36.84 27.0854L40.0173 27.9783L39.9849 28.0939L36.7863 27.2346ZM42.443 23.2878C42.7535 25.0883 42.7008 26.9328 42.288 28.7126L41.4927 28.4989L41.5211 28.398C41.631 27.9989 41.5788 27.5725 41.376 27.2116C41.1731 26.8508 40.836 26.5848 40.438 26.4716L37.5069 25.6486C38.385 24.3326 40.0303 23.1614 42.443 23.2878ZM40.3759 17.7394C39.8204 17.7283 39.2528 17.6989 38.6898 17.6628C37.7974 17.6033 36.879 17.5392 36.037 17.5911C34.0904 17.6964 32.7113 18.8718 31.706 19.7311C31.4208 19.9723 31.05 20.2898 30.8334 20.4104C30.6489 20.0823 30.7663 19.7097 31.1035 18.8702C31.4802 17.93 31.9959 16.6432 31.6069 15.0068C31.4401 14.2984 32.1598 13.1711 33.5766 11.8843C36.3871 13.096 38.7597 15.1392 40.3759 17.7394ZM26.0661 10.7835C26.413 12.5374 25.7884 14.6991 24.8886 15.7287C23.5213 17.2948 23.7231 19.1128 23.9183 20.8697C24.0091 21.6863 24.1029 22.5309 24.0594 23.3974C23.9976 24.6384 23.1114 25.6077 22.5881 26.0749C21.6384 26.925 20.4875 27.4181 19.8243 27.444C19.8129 27.0945 19.9975 26.3359 20.1142 25.8566C20.3612 24.8446 20.6168 23.7974 20.4321 22.9289C20.0676 21.2147 18.2485 21.1232 16.787 21.0514C16.1522 21.0194 15.4964 20.9873 15.0045 20.8423C14.8918 20.8103 14.5553 20.3747 14.4088 18.927C15.5223 16.7071 17.1713 14.7999 19.2067 13.3781C21.2421 11.9562 23.5996 11.0644 26.0661 10.7835ZM17.1655 36.11C15.2655 34.2157 13.9154 31.8405 13.2594 29.2382C12.6034 26.636 12.6661 23.9042 13.4408 21.3348C13.724 21.8604 14.0926 22.2045 14.5655 22.3426C15.2337 22.5395 15.9842 22.5761 16.7095 22.6127C18.1764 22.6845 18.8048 22.7898 18.9033 23.2538C19.0138 23.7728 18.7919 24.6826 18.5966 25.487C18.2999 26.7021 18.0444 27.7522 18.5646 28.4589C18.6876 28.6237 18.8464 28.7584 19.029 28.8528C19.2116 28.9472 19.4133 28.9989 19.6187 29.0039C19.669 29.0069 19.7201 29.0084 19.7721 29.0084C20.8871 29.0084 22.4447 28.3002 23.6296 27.2409C24.8462 26.1525 25.5535 24.8154 25.6204 23.4752C25.6701 22.4815 25.5648 21.5336 25.4717 20.6971C25.2917 19.0806 25.1494 17.8046 26.0651 16.7574C27.1979 15.4608 28.0092 12.9327 27.6441 10.689C27.672 10.689 27.6986 10.6848 27.7264 10.6848C29.1496 10.6867 30.5651 10.8932 31.9296 11.2981C30.4158 12.8261 29.8029 14.166 30.0879 15.3663C30.3613 16.5203 30.0024 17.4193 29.6531 18.2881C29.2808 19.2192 28.8568 20.277 29.5707 21.3378C29.8987 21.8233 30.2934 21.9698 30.57 22.0064C30.63 22.015 30.6907 22.0191 30.7514 22.0187C31.4303 22.0187 32.0313 21.5058 32.7194 20.9196C33.6026 20.1656 34.7025 19.2284 36.1227 19.1509C36.9457 19.1288 37.7692 19.1527 38.5895 19.2226C39.4634 19.2861 40.3399 19.3057 41.2157 19.2812C41.5846 20.0653 41.8839 20.8802 42.1101 21.7167C39.2286 21.7286 37.06 23.2548 35.9581 25.2133L35.2303 25.009C34.8314 24.897 34.4044 24.9482 34.0431 25.1511C33.6818 25.354 33.4159 25.6922 33.3037 26.0912L33.2494 26.2842L32.7059 26.1376C32.692 26.1349 32.6793 26.1287 32.6651 26.1268L29.0307 25.1504C28.8032 25.0885 28.5646 25.079 28.3328 25.1226C28.1011 25.1662 27.8823 25.2619 27.6928 25.4023L23.9099 28.2057C23.8386 28.2686 23.7732 28.338 23.7146 28.4129C23.6886 28.437 23.6643 28.4629 23.6419 28.4903C23.4864 28.6713 23.3746 28.8857 23.3154 29.1169L22.3728 33.2982C20.7308 33.8591 19.5574 34.2731 18.8345 34.6242C18.1918 34.937 17.6362 35.4403 17.1655 36.11ZM21.1001 38.9418C20.1117 38.4607 19.1793 37.872 18.3199 37.1864C18.6638 36.6415 19.0638 36.2512 19.5176 36.0301C20.0472 35.7728 20.9635 35.4389 21.9688 35.0899L21.1001 38.9418ZM21.4966 44.285L24.7453 29.8806L27.2297 30.5483L23.7216 44.7686L21.4966 44.285ZM36.2683 47.4934L25.2488 45.0999L28.7385 30.9537L39.3483 33.8051L36.2683 47.4934ZM40.0771 48.3207L37.7955 47.8251L40.8567 34.2106L43.1117 34.8165L40.0771 48.3207ZM45.2321 46.2449L41.7766 47.8881L44.6218 35.2237L48.2834 32.6679L45.2321 46.2449ZM9.47029 10.464L11.3093 10.4488L11.6304 11.1891C11.6992 11.4399 11.8167 11.6747 11.9763 11.88C12.1358 12.0853 12.3343 12.2571 12.5604 12.3855C12.7864 12.5139 13.0355 12.5964 13.2935 12.6283C13.5514 12.6602 13.8132 12.6409 14.0636 12.5714C14.3141 12.5019 14.5484 12.3836 14.7531 12.2234C14.9579 12.0631 15.129 11.864 15.2566 11.6375C15.3843 11.411 15.4661 11.1614 15.4972 10.9032C15.5284 10.645 15.5083 10.3832 15.4381 10.1328L15.3176 9.69773C15.6015 9.36757 15.7638 8.95007 15.7775 8.51474C15.7952 8.00394 15.6114 7.50667 15.2657 7.13035L15.5639 6.2755C15.6308 6.0865 15.6679 5.88823 15.6738 5.68782C15.6846 5.34807 15.6078 5.01125 15.4506 4.7099C15.2935 4.40854 15.0613 4.15283 14.7765 3.96745C14.4918 3.78208 14.1641 3.6733 13.825 3.65163C13.486 3.62997 13.1471 3.69614 12.8411 3.84376C12.3651 4.07271 12.0074 4.47414 11.8755 4.87557L11.1616 6.28273L9.4865 6.16547L10.3134 2.63028C10.3807 2.44087 10.418 2.24208 10.4239 2.04113C10.4392 1.61992 10.3188 1.20495 10.0806 0.857338C9.8424 0.509727 9.49891 0.247855 9.10075 0.110295L9.09928 0.108732C8.06916 -0.243839 6.94246 0.296548 6.63063 1.21697L4.21569 5.79619L2.0533 5.64355C0.838705 5.62831 0.0320325 7.01279 0 7.99888C0.00181297 8.72511 0.269312 9.42555 0.751983 9.96792C0.899318 10.136 1.07932 10.2724 1.28102 10.3686C1.48271 10.4649 1.70188 10.519 1.92517 10.5278L4.36834 10.5082L6.15385 14.4845C6.2217 14.7347 6.33857 14.969 6.49767 15.1737C6.65677 15.3783 6.85494 15.5493 7.08065 15.6767C7.37645 15.845 7.7107 15.9341 8.05101 15.9351C8.39131 15.9362 8.72612 15.8493 9.02299 15.6829C9.31986 15.5164 9.56872 15.276 9.74546 14.9851C9.92219 14.6941 10.0208 14.3623 10.0317 14.022C10.0403 13.8499 10.0225 13.6774 9.9791 13.5106L9.47029 10.464ZM8.43832 13.767L8.47113 13.9715C8.46865 14.0427 8.44785 14.1121 8.41076 14.173C8.37366 14.2339 8.3215 14.2841 8.25933 14.319C8.19716 14.3538 8.12707 14.372 8.05581 14.3718C7.98456 14.3717 7.91456 14.3531 7.85255 14.318C7.79757 14.2859 7.69923 14.2126 7.61993 13.9577L5.37589 8.9361L1.97859 8.97118C1.82449 8.90552 1.54889 8.39572 1.56061 8.05077C1.57203 7.70425 1.87185 7.25094 1.97322 7.2051L5.12188 7.42644L8.0592 1.83817C8.09232 1.74522 8.1575 1.66715 8.24303 1.618C8.32855 1.56886 8.42879 1.55187 8.52571 1.5701C8.62264 1.58832 8.70988 1.64057 8.77174 1.71742C8.83359 1.79428 8.86601 1.8907 8.86314 1.98934L7.54668 7.59735L12.0858 7.9164L13.3092 5.48632C13.3273 5.43505 13.3553 5.38785 13.3916 5.34743C13.4279 5.30701 13.4719 5.27416 13.5209 5.25076C13.5699 5.22737 13.6231 5.21389 13.6774 5.2111C13.7316 5.20831 13.7859 5.21626 13.8371 5.2345C14.0346 5.3029 14.1177 5.48485 14.0895 5.75954L13.3855 7.77754L13.9858 8.08888C14.0524 8.11782 14.1095 8.16501 14.1505 8.22501C14.1914 8.28501 14.2146 8.35538 14.2173 8.42799C14.22 8.5006 14.2022 8.5725 14.1658 8.6354C14.1294 8.6983 14.076 8.74963 14.0118 8.78347L13.5289 9.0948L13.9484 10.6762C13.9447 10.7641 13.9134 10.8486 13.8589 10.9177C13.8044 10.9868 13.7295 11.0369 13.6449 11.0608C13.5388 11.0885 13.4262 11.0749 13.3298 11.0227C13.2345 10.9678 13.1651 10.8793 13.1018 10.6746L12.3345 8.8763L7.62901 8.91607L8.43832 13.767ZM36.7173 37.99C36.6057 37.8177 36.4609 37.6694 36.2915 37.5536C36.122 37.4379 35.9313 37.357 35.7303 37.3157L30.4353 36.203C30.0299 36.118 29.6074 36.1976 29.2606 36.4243C28.9139 36.651 28.6714 37.0063 28.5864 37.4119L28.1664 39.4054C28.0829 39.8111 28.1631 40.2333 28.3895 40.5801C28.6159 40.9269 28.9701 41.1701 29.375 41.2565L34.67 42.3706C35.0754 42.4555 35.4979 42.3759 35.8446 42.1492C36.1913 41.9225 36.4339 41.5673 36.5189 41.1617L36.9389 39.1651C36.9815 38.9643 36.9839 38.757 36.9459 38.5553C36.9078 38.3536 36.8301 38.1614 36.7173 37.99ZM34.9904 40.8414L29.6954 39.7274L30.1153 37.7324L35.4104 38.8448L34.9904 40.8414ZM46.7887 21.0326C46.8368 21.2342 46.8029 21.4466 46.6945 21.6233C46.586 21.7999 46.412 21.9262 46.2105 21.9744C46.1511 21.9889 46.0901 21.9961 46.029 21.9958C45.8534 21.9958 45.6829 21.9366 45.5451 21.8277C45.4073 21.7189 45.3101 21.5668 45.2693 21.3959C45.1521 20.9073 45.0145 20.4285 44.8605 19.9565C44.8284 19.8591 44.8158 19.7563 44.8235 19.654C44.8311 19.5517 44.8588 19.452 44.905 19.3604C44.9511 19.2688 45.0149 19.1872 45.0926 19.1203C45.1702 19.0534 45.2603 19.0024 45.3577 18.9704C45.455 18.9383 45.5578 18.9257 45.66 18.9333C45.7622 18.941 45.8619 18.9687 45.9534 19.0149C46.045 19.0611 46.1265 19.1249 46.1934 19.2026C46.2602 19.2803 46.3112 19.3705 46.3432 19.4679C46.5126 19.9796 46.661 20.5012 46.7887 21.0326ZM45.0679 16.4716C45.165 16.6546 45.1855 16.8687 45.1249 17.0668C45.0643 17.2649 44.9275 17.4308 44.7446 17.528C44.5617 17.6252 44.3477 17.6457 44.1497 17.5851C43.9517 17.5244 43.786 17.3875 43.6888 17.2045C43.4539 16.7615 43.2021 16.3301 42.9337 15.9101C42.8241 15.7357 42.7878 15.5249 42.8327 15.3238C42.8777 15.1227 43.0002 14.9475 43.1736 14.8364C43.3471 14.7252 43.5574 14.6872 43.7587 14.7305C43.9601 14.7737 44.1362 14.8949 44.2487 15.0675C44.5416 15.5241 44.8147 15.9923 45.0679 16.472V16.4716ZM45.7651 25.8469L45.7665 25.6103C45.7665 25.1875 45.7518 24.7688 45.7223 24.3541C45.7079 24.1472 45.7761 23.9431 45.9119 23.7865C46.0478 23.63 46.2402 23.5338 46.4469 23.5191C46.6522 23.5106 46.853 23.5809 47.0082 23.7157C47.1633 23.8506 47.261 24.0396 47.2813 24.2442C47.3134 24.6959 47.3292 25.1513 47.3287 25.6103L47.3271 25.8742C47.3235 26.0791 47.2396 26.2744 47.0935 26.418C46.9473 26.5616 46.7507 26.6421 46.5459 26.642H46.5322C46.3252 26.6383 46.1281 26.5525 45.9843 26.4035C45.8404 26.2545 45.7616 26.0544 45.7651 25.8473V25.8469ZM32.301 8.14839C32.2018 8.12241 32.1087 8.07711 32.027 8.01509C31.9453 7.95306 31.8766 7.87553 31.8249 7.78693C31.7732 7.69833 31.7395 7.60039 31.7257 7.49872C31.7118 7.39706 31.7182 7.29366 31.7443 7.19445C31.7693 7.09464 31.814 7.00083 31.8758 6.91853C31.9375 6.83624 32.0151 6.76712 32.1039 6.71523C32.1927 6.66335 32.291 6.62974 32.393 6.61638C32.495 6.60302 32.5986 6.61019 32.6978 6.63745C33.2251 6.77485 33.7427 6.93511 34.2506 7.11374C34.4239 7.17544 34.5699 7.29635 34.6628 7.45518C34.7558 7.614 34.7897 7.80055 34.7588 7.98198C34.7278 8.1634 34.6338 8.32807 34.4934 8.44698C34.353 8.56588 34.1751 8.6314 33.9912 8.632C33.9028 8.63234 33.8151 8.61736 33.7319 8.58773C33.2635 8.42171 32.786 8.27669 32.301 8.14839ZM27.8617 7.5608C27.6545 7.56019 27.456 7.47725 27.31 7.33021C27.1639 7.18317 27.0821 6.98409 27.0828 6.77675C27.0834 6.56942 27.1663 6.37082 27.3132 6.22464C27.4602 6.07846 27.6591 5.99669 27.8663 5.99729H27.8709C28.417 6.00032 28.9586 6.02788 29.494 6.07547C29.6934 6.09438 29.8779 6.18916 30.0094 6.34024C30.1409 6.49132 30.2095 6.68717 30.2008 6.88735C30.1922 7.08753 30.1071 7.27676 29.9631 7.41597C29.8191 7.55519 29.6272 7.63376 29.4269 7.63546C29.4025 7.63546 29.3797 7.6339 29.3567 7.63243C28.864 7.58826 28.3657 7.56439 27.8617 7.5608ZM23.1854 7.79435C22.984 7.79081 22.7918 7.7096 22.6488 7.56768C22.5059 7.42575 22.4232 7.23407 22.4181 7.03262C22.413 6.83118 22.4858 6.63553 22.6213 6.48651C22.7569 6.33748 22.9447 6.24659 23.1456 6.2328L24.7055 6.15189C25.1156 6.10606 25.5033 6.46019 25.5258 6.89221C25.5311 6.99466 25.5161 7.09714 25.4818 7.19381C25.4475 7.29047 25.3944 7.37941 25.3257 7.45554C25.257 7.53167 25.174 7.5935 25.0813 7.63748C24.9887 7.68147 24.8883 7.70675 24.7859 7.71188L23.2261 7.79279C23.2126 7.79408 23.199 7.7946 23.1854 7.79435ZM18.5054 8.03591C18.3041 8.03235 18.1119 7.95113 17.9689 7.8092C17.826 7.66726 17.7433 7.47558 17.7382 7.27414C17.7331 7.0727 17.8059 6.87706 17.9415 6.72804C18.077 6.57903 18.2649 6.48815 18.4658 6.47436L20.0256 6.39345C20.4496 6.34303 20.8226 6.70175 20.8459 7.13221C20.8513 7.23473 20.8364 7.33731 20.8022 7.43407C20.7679 7.53083 20.7149 7.61988 20.6462 7.69613C20.5774 7.77237 20.4944 7.8343 20.4017 7.87839C20.3091 7.92247 20.2086 7.94784 20.1062 7.95305L18.5463 8.03396C18.5327 8.03538 18.5191 8.03603 18.5054 8.03591ZM40.0722 12.4626C39.9212 12.3205 39.8328 12.1242 39.8265 11.9169C39.8201 11.7096 39.8963 11.5083 40.0383 11.3572C40.1803 11.2062 40.3765 11.1177 40.5837 11.1114C40.7908 11.105 40.992 11.1813 41.143 11.3234C41.5366 11.6928 41.9145 12.0805 42.2796 12.4819C42.4176 12.636 42.489 12.8384 42.4783 13.045C42.4675 13.2516 42.3754 13.4455 42.2222 13.5843C42.0689 13.7232 41.8669 13.7956 41.6604 13.7858C41.4539 13.7761 41.2596 13.6848 41.1202 13.5321C40.7858 13.1612 40.4349 12.804 40.0719 12.4626H40.0722ZM36.4537 9.81734C36.3639 9.76742 36.2848 9.70031 36.221 9.61982C36.1571 9.53933 36.1097 9.44704 36.0815 9.34823C36.0533 9.24942 36.0448 9.14601 36.0566 9.04392C36.0683 8.94183 36.1 8.84305 36.1499 8.75322C36.1998 8.66339 36.2669 8.58428 36.3473 8.52038C36.4277 8.45649 36.52 8.40908 36.6187 8.38086C36.7175 8.35263 36.8208 8.34415 36.9229 8.35588C37.0249 8.36762 37.1236 8.39935 37.2134 8.44927C37.6878 8.7133 38.1495 8.99568 38.5985 9.29639C38.7652 9.41371 38.8796 9.5916 38.9171 9.79209C38.9546 9.99258 38.9123 10.1998 38.7992 10.3695C38.6861 10.5392 38.5112 10.658 38.3119 10.7005C38.1125 10.743 37.9044 10.7058 37.732 10.5969C37.3171 10.3205 36.8909 10.0605 36.4534 9.81685L36.4537 9.81734Z" fill="#0D4261"/>
</svg>
