<svg width="10" height="9" viewBox="0 0 10 9" fill="none" xmlns="http://www.w3.org/2000/svg">
<path d="M8.90021 5.04451C9.05263 4.96352 9.14771 4.80859 9.14771 4.63957C9.14771 4.47055 9.05263 4.31526 8.90021 4.23427L7.86488 3.68566C6.91156 3.18072 6.13279 2.42577 5.61132 1.50285L5.0452 0.500002C4.96174 0.35211 4.8017 0.260205 4.62824 0.260205C4.45441 0.260205 4.29474 0.35211 4.21091 0.500002L3.6448 1.50285C3.12369 2.42577 2.34419 3.18072 1.39087 3.68566L0.355905 4.23427C0.203127 4.31526 0.108412 4.47055 0.108412 4.63957C0.108412 4.80859 0.203127 4.96352 0.355905 5.04451L1.39087 5.59312C2.34456 6.09806 3.12369 6.85301 3.6448 7.77558L4.21091 8.77843C4.37821 9.07386 4.87791 9.07386 5.0452 8.77843L5.61132 7.77558C6.13279 6.85301 6.91156 6.09806 7.86488 5.59312L8.90021 5.04451ZM7.40872 4.78288C6.29573 5.37269 5.3856 6.2544 4.77703 7.3319L4.62824 7.596L4.47909 7.3319C3.87052 6.2537 2.96039 5.37269 1.84703 4.78288L1.57631 4.63957L1.84703 4.4959C2.96002 3.90645 3.87016 3.02438 4.47909 1.94653L4.62824 1.68208L4.77703 1.94653C5.3856 3.02438 6.29573 3.90609 7.40872 4.4959L7.67944 4.63957L7.40872 4.78288Z" fill="white"/>
</svg>
